<svg version="1.1" id="Layer_1" xmlns="http://www.w3.org/2000/svg" xmlns:xlink="http://www.w3.org/1999/xlink" x="0px" y="0px"
	 width="100%" viewBox="0 0 500 500" enable-background="new 0 0 500 500" xml:space="preserve">
<path fill="#FF6900" opacity="1.000000" stroke="none" 
	d="
M219.000000,501.000000 
	C146.000015,501.000000 73.500038,501.000000 1.000039,501.000000 
	C1.000026,334.333405 1.000026,167.666779 1.000013,1.000128 
	C167.666565,1.000086 334.333130,1.000086 500.999756,1.000043 
	C500.999847,167.666534 500.999847,334.333069 500.999939,500.999817 
	C407.166656,501.000000 313.333344,501.000000 219.000000,501.000000 
M402.916931,220.252167 
	C401.479126,218.671555 400.336029,216.533890 398.559326,215.593933 
	C372.102081,201.596802 345.541321,187.795502 319.070251,173.824326 
	C316.412048,172.421356 314.306824,172.435760 311.692352,173.797256 
	C275.706390,192.537247 239.407120,210.700912 203.824493,230.174927 
	C192.968109,236.116501 184.265091,237.523315 174.191986,229.959244 
	C169.821548,226.677414 164.439926,224.742203 158.661209,221.752243 
	C201.057404,199.812454 242.380905,178.427780 284.251953,156.759750 
	C273.762451,151.300735 264.279999,146.093613 254.514221,141.487106 
	C252.254211,140.421051 248.537872,140.452515 246.315552,141.589401 
	C198.649475,165.974243 151.093491,190.574509 103.560547,215.218597 
	C101.942444,216.057526 100.784576,217.784180 99.412193,219.097061 
	C100.805328,220.409805 101.999435,222.080673 103.621223,222.981979 
	C131.386032,238.412445 159.224136,253.711075 186.981140,269.155487 
	C190.069168,270.873718 192.463730,270.929138 195.701126,269.215149 
	C230.382355,250.853561 265.163910,232.681412 299.925720,214.472122 
	C305.225861,211.695755 310.562744,206.856796 315.887451,206.850128 
	C321.391968,206.843277 326.932373,211.503891 332.400574,214.235779 
	C336.620850,216.344177 340.753845,218.627335 345.760773,221.274307 
	C303.401062,243.452530 262.092712,265.080322 220.113388,287.059387 
	C228.305695,291.397827 235.898346,294.829437 242.846390,299.269714 
	C249.343246,303.421661 254.664215,302.674774 261.172699,299.057739 
	C296.492554,279.429016 332.069611,260.263763 367.499420,240.831924 
	C379.295105,234.362457 390.917114,227.576279 402.916931,220.252167 
M276.058044,317.597229 
	C271.377350,320.126678 266.645447,322.566650 262.027893,325.206573 
	C255.058228,329.191132 248.269501,329.125793 241.199173,325.265930 
	C225.881332,316.903534 210.433136,308.780212 195.053055,300.531494 
	C184.258713,294.742188 173.488831,288.907318 162.260330,282.851318 
	C162.260330,293.685303 162.137665,303.933044 162.406143,314.170532 
	C162.442154,315.544250 164.179535,317.359558 165.588852,318.138916 
	C191.632263,332.540833 217.741898,346.823120 243.847504,361.112457 
	C248.947311,363.903931 254.082748,363.672241 259.117981,360.949402 
	C285.294312,346.794220 311.471436,332.640137 337.582214,318.364929 
	C338.974976,317.603485 340.662079,315.766296 340.696655,314.391815 
	C340.957642,304.012878 340.839111,293.624390 340.839111,282.616150 
	C319.035828,294.371368 297.861603,305.787415 276.058044,317.597229 
M380.967834,252.981949 
	C380.567749,250.486084 380.167664,247.990219 379.767548,245.494339 
	C379.054291,245.399857 378.341003,245.305359 377.627716,245.210876 
	C378.374756,250.982437 374.912018,254.391357 371.781372,258.035767 
	C371.223602,258.685089 371.181641,259.934998 371.208282,260.899109 
	C371.285706,263.701630 370.889221,266.750336 371.874359,269.226837 
	C372.793457,271.537201 375.245697,273.237640 377.276154,275.486908 
	C371.472229,277.091095 371.224274,281.399902 371.057037,286.168884 
	C370.881165,291.183655 372.635590,294.709351 377.727966,296.924561 
	C376.513641,297.770233 375.899475,298.240601 375.245392,298.646637 
	C370.246124,301.750061 369.058533,313.258484 373.818726,316.522522 
	C376.384277,318.281769 377.390961,319.886810 377.186676,322.833527 
	C377.115631,323.858215 378.148010,324.959412 378.676422,326.025665 
	C379.375580,324.907990 380.215057,323.851990 380.740021,322.657745 
	C381.467834,321.001984 381.812927,319.172913 382.585724,317.543152 
	C383.786285,315.011200 386.055786,312.683807 386.359314,310.092499 
	C386.969330,304.884552 387.303040,299.252228 380.004181,297.234436 
	C388.978424,291.122101 388.977692,281.105713 380.988281,274.924591 
	C388.661499,267.487305 388.834869,257.769318 380.967834,252.981949 
M386.695587,357.417297 
	C385.977814,354.359772 385.433563,351.247681 384.494598,348.259674 
	C383.509827,345.125885 381.061005,342.378540 383.589386,338.684021 
	C384.113525,337.918152 382.571564,334.911591 381.247620,333.969482 
	C380.189911,333.216827 377.470856,333.421112 376.477875,334.307831 
	C375.266541,335.389526 374.045044,338.333832 374.655945,339.239349 
	C376.686432,342.249146 375.058960,344.365417 374.056030,346.900665 
	C372.905090,349.810211 372.004852,352.842773 371.297852,355.891968 
	C371.029083,357.051086 371.169098,358.767578 371.870300,359.601471 
	C373.894196,362.008148 384.381531,360.895294 386.695587,357.417297 
z"/>
<path fill="#FEFCFB" opacity="1.000000" stroke="none" 
	d="
M402.767700,220.593521 
	C390.917114,227.576279 379.295105,234.362457 367.499420,240.831924 
	C332.069611,260.263763 296.492554,279.429016 261.172699,299.057739 
	C254.664215,302.674774 249.343246,303.421661 242.846390,299.269714 
	C235.898346,294.829437 228.305695,291.397827 220.113388,287.059387 
	C262.092712,265.080322 303.401062,243.452530 345.760773,221.274307 
	C340.753845,218.627335 336.620850,216.344177 332.400574,214.235779 
	C326.932373,211.503891 321.391968,206.843277 315.887451,206.850128 
	C310.562744,206.856796 305.225861,211.695755 299.925720,214.472122 
	C265.163910,232.681412 230.382355,250.853561 195.701126,269.215149 
	C192.463730,270.929138 190.069168,270.873718 186.981140,269.155487 
	C159.224136,253.711075 131.386032,238.412445 103.621223,222.981979 
	C101.999435,222.080673 100.805328,220.409805 99.412186,219.097061 
	C100.784576,217.784180 101.942444,216.057526 103.560547,215.218597 
	C151.093491,190.574509 198.649475,165.974243 246.315552,141.589401 
	C248.537872,140.452515 252.254211,140.421051 254.514221,141.487106 
	C264.279999,146.093613 273.762451,151.300735 284.251953,156.759750 
	C242.380905,178.427780 201.057404,199.812454 158.661209,221.752243 
	C164.439926,224.742203 169.821548,226.677414 174.191986,229.959244 
	C184.265091,237.523315 192.968109,236.116501 203.824493,230.174927 
	C239.407120,210.700912 275.706390,192.537247 311.692352,173.797256 
	C314.306824,172.435760 316.412048,172.421356 319.070251,173.824326 
	C345.541321,187.795502 372.102081,201.596802 398.559326,215.593933 
	C400.336029,216.533890 401.479126,218.671555 402.767700,220.593521 
z"/>
<path fill="#FEFCFB" opacity="1.000000" stroke="none" 
	d="
M276.372681,317.400330 
	C297.861603,305.787415 319.035828,294.371368 340.839111,282.616150 
	C340.839111,293.624390 340.957642,304.012878 340.696655,314.391815 
	C340.662079,315.766296 338.974976,317.603485 337.582214,318.364929 
	C311.471436,332.640137 285.294312,346.794220 259.117981,360.949402 
	C254.082748,363.672241 248.947311,363.903931 243.847504,361.112457 
	C217.741898,346.823120 191.632263,332.540833 165.588852,318.138916 
	C164.179535,317.359558 162.442154,315.544250 162.406143,314.170532 
	C162.137665,303.933044 162.260330,293.685303 162.260330,282.851318 
	C173.488831,288.907318 184.258713,294.742188 195.053055,300.531494 
	C210.433136,308.780212 225.881332,316.903534 241.199173,325.265930 
	C248.269501,329.125793 255.058228,329.191132 262.027893,325.206573 
	C266.645447,322.566650 271.377350,320.126678 276.372681,317.400330 
z"/>
<path fill="#FEF1E7" opacity="1.000000" stroke="none" 
	d="
M381.167603,253.327881 
	C388.834869,257.769318 388.661499,267.487305 380.988281,274.924591 
	C388.977692,281.105713 388.978424,291.122101 380.004181,297.234436 
	C387.303040,299.252228 386.969330,304.884552 386.359314,310.092499 
	C386.055786,312.683807 383.786285,315.011200 382.585724,317.543152 
	C381.812927,319.172913 381.467834,321.001984 380.740021,322.657745 
	C380.215057,323.851990 379.375580,324.907990 378.676422,326.025665 
	C378.148010,324.959412 377.115631,323.858215 377.186676,322.833527 
	C377.390961,319.886810 376.384277,318.281769 373.818726,316.522522 
	C369.058533,313.258484 370.246124,301.750061 375.245392,298.646637 
	C375.899475,298.240601 376.513641,297.770233 377.727966,296.924561 
	C372.635590,294.709351 370.881165,291.183655 371.057037,286.168884 
	C371.224274,281.399902 371.472229,277.091095 377.276154,275.486908 
	C375.245697,273.237640 372.793457,271.537201 371.874359,269.226837 
	C370.889221,266.750336 371.285706,263.701630 371.208282,260.899109 
	C371.181641,259.934998 371.223602,258.685089 371.781372,258.035767 
	C374.912018,254.391357 378.374756,250.982437 377.627716,245.210876 
	C378.341003,245.305359 379.054291,245.399857 379.767548,245.494339 
	C380.167664,247.990219 380.567749,250.486084 381.167603,253.327881 
M374.836456,264.422241 
	C375.011688,266.134705 375.186920,267.847137 375.276276,268.720551 
	C377.970306,268.720551 379.938324,268.720551 382.435974,268.720551 
	C382.435974,265.658966 382.435974,261.913361 382.435974,258.707794 
	C379.967621,258.707794 377.944061,258.707794 375.215271,258.707794 
	C375.128967,259.813599 374.981934,261.697540 374.836456,264.422241 
M376.785126,280.197327 
	C374.395935,282.309509 374.040283,286.263306 375.573120,290.899597 
	C377.807068,290.899597 379.848389,290.899597 382.426147,290.899597 
	C382.426147,287.777161 382.426147,284.032776 382.426147,280.787872 
	C380.338623,280.787872 378.815430,280.787872 376.785126,280.197327 
M380.981628,313.714844 
	C385.109161,310.218414 382.300110,306.220490 382.464111,303.107239 
	C379.766998,303.107239 377.748474,303.107239 375.446106,303.107239 
	C375.446106,306.289032 375.446106,310.038818 375.446106,313.246796 
	C377.500000,313.246796 378.937042,313.246796 380.981628,313.714844 
z"/>
<path fill="#FFF8F3" opacity="1.000000" stroke="none" 
	d="
M386.729095,357.828735 
	C384.381531,360.895294 373.894196,362.008148 371.870300,359.601471 
	C371.169098,358.767578 371.029083,357.051086 371.297852,355.891968 
	C372.004852,352.842773 372.905090,349.810211 374.056030,346.900665 
	C375.058960,344.365417 376.686432,342.249146 374.655945,339.239349 
	C374.045044,338.333832 375.266541,335.389526 376.477875,334.307831 
	C377.470856,333.421112 380.189911,333.216827 381.247620,333.969482 
	C382.571564,334.911591 384.113525,337.918152 383.589386,338.684021 
	C381.061005,342.378540 383.509827,345.125885 384.494598,348.259674 
	C385.433563,351.247681 385.977814,354.359772 386.729095,357.828735 
z"/>
<path fill="#FF710D" opacity="1.000000" stroke="none" 
	d="
M374.835693,264.001831 
	C374.981934,261.697540 375.128967,259.813599 375.215271,258.707794 
	C377.944061,258.707794 379.967621,258.707794 382.435974,258.707794 
	C382.435974,261.913361 382.435974,265.658966 382.435974,268.720551 
	C379.938324,268.720551 377.970306,268.720551 375.276276,268.720551 
	C375.186920,267.847137 375.011688,266.134705 374.835693,264.001831 
z"/>
<path fill="#FF6F0B" opacity="1.000000" stroke="none" 
	d="
M377.038696,280.492615 
	C378.815430,280.787872 380.338623,280.787872 382.426147,280.787872 
	C382.426147,284.032776 382.426147,287.777161 382.426147,290.899597 
	C379.848389,290.899597 377.807068,290.899597 375.573120,290.899597 
	C374.040283,286.263306 374.395935,282.309509 377.038696,280.492615 
z"/>
<path fill="#FF700C" opacity="1.000000" stroke="none" 
	d="
M380.677856,313.480835 
	C378.937042,313.246796 377.500000,313.246796 375.446106,313.246796 
	C375.446106,310.038818 375.446106,306.289032 375.446106,303.107239 
	C377.748474,303.107239 379.766998,303.107239 382.464111,303.107239 
	C382.300110,306.220490 385.109161,310.218414 380.677856,313.480835 
z"/>
</svg>